<svg width="20" height="18" viewBox="0 0 20 18" fill="none" xmlns="http://www.w3.org/2000/svg">
<g id="Group">
<path id="Vector" d="M8.59995 17C4.40259 17 0.999951 13.4183 0.999951 9C0.999951 4.58172 4.40259 1 8.59995 1C12.7973 1 16.2 4.58172 16.2 9C16.2 13.4183 12.7973 17 8.59995 17Z" stroke="#A52424" stroke-width="2" stroke-linecap="round" stroke-linejoin="round"/>
<path id="Vector_2" d="M10.6 6.4398C10.091 6.02675 9.45561 5.80084 8.80005 5.7998C7.14325 5.7998 5.80005 7.2318 5.80005 8.9998C5.80005 10.7678 7.14325 12.1998 8.80005 12.1998C9.47525 12.1998 10.0984 11.9614 10.6 11.5598" stroke="#A52424" stroke-width="2" stroke-linecap="round" stroke-linejoin="round"/>
<path id="Vector_3" d="M8.19995 1C11.6664 1 18.6 1.8 18.6 9C18.6 16.2 11.6664 17 8.19995 17" stroke="#A52424" stroke-width="2"/>
</g>
</svg>
