<svg width="18" height="16" viewBox="0 0 18 16" fill="none" xmlns="http://www.w3.org/2000/svg">
<g id="Group 1287">
<path id="Vector" d="M14.8039 9.71523C14.0847 10.1909 13.2587 10.441 12.417 10.4381C11.7119 10.432 11.0148 10.2751 10.3654 9.9763C9.86484 10.7451 9.59697 11.6645 9.599 12.6066V15.0125C9.59918 15.102 9.58245 15.1906 9.54985 15.2727C9.51725 15.3549 9.46947 15.4288 9.40949 15.49C9.3495 15.5513 9.27859 15.5984 9.20116 15.6285C9.12372 15.6587 9.04142 15.6712 8.95936 15.6652C8.80517 15.6506 8.66174 15.5731 8.55786 15.4483C8.45397 15.3235 8.3973 15.1605 8.39921 14.9921V13.9772L5.50319 10.8264C5.07269 11.0012 4.61739 11.0926 4.15792 11.0965C3.52537 11.0982 2.90465 10.9099 2.36422 10.5523C0.730241 9.4721 -0.149361 6.98621 0.0208603 3.89985C0.029431 3.74017 0.0915936 3.58948 0.195546 3.47638C0.299499 3.36329 0.438004 3.29565 0.584766 3.28633C3.42154 3.10439 5.70641 4.05812 6.69624 5.83586C7.08514 6.53266 7.25492 7.34829 7.17991 8.1594C7.17525 8.22225 7.15395 8.28227 7.1186 8.33223C7.08325 8.38219 7.03535 8.41993 6.9807 8.4409C6.92605 8.46187 6.86698 8.46517 6.81065 8.4504C6.75431 8.43562 6.70311 8.40341 6.66325 8.35765L5.22349 6.71779C5.11007 6.60056 4.95904 6.53617 4.80261 6.53835C4.64618 6.54053 4.49672 6.6091 4.3861 6.72946C4.27548 6.84981 4.21245 7.01242 4.21044 7.18262C4.20844 7.35281 4.26763 7.51712 4.37538 7.64052L8.4157 12.1481C8.4202 12.0845 8.42545 12.0208 8.43145 11.958C8.56264 10.7479 9.05343 9.61748 9.82922 8.73866L13.6228 4.37712C13.7354 4.25476 13.7987 4.08876 13.7987 3.91564C13.7988 3.74252 13.7357 3.57645 13.6232 3.45399C13.5107 3.33152 13.3582 3.26267 13.199 3.26259C13.0399 3.26252 12.8873 3.33122 12.7747 3.45358L9.10034 7.68131C9.06356 7.7237 9.01702 7.75459 8.96555 7.77078C8.91408 7.78697 8.85956 7.78787 8.80767 7.77338C8.75578 7.75889 8.7084 7.72954 8.67045 7.68839C8.63251 7.64723 8.6054 7.59577 8.59192 7.53935C8.23648 6.11325 8.39321 4.69367 9.07184 3.47479C10.4111 1.06966 13.5276 -0.217748 17.4089 0.0302706C17.5557 0.0395953 17.6942 0.107227 17.7982 0.220326C17.9021 0.333425 17.9643 0.484116 17.9728 0.64379C18.1978 4.86745 17.0145 8.25812 14.8039 9.71523Z" fill="white"/>
</g>
</svg>
